M48
;Layer_Color=9474304
;FILE_FORMAT=2:4
INCH,TZ
;TYPE=PLATED
T1F00S00C0.0197
T2F00S00C0.0276
T3F00S00C0.0295
T4F00S00C0.0354
T5F00S00C0.0394
T6F00S00C0.0400
T7F00S00C0.0433
T8F00S00C0.0437
T9F00S00C0.1180
T10F00S00C0.1260
T11F00S00C0.1355
%
T01
X42874Y1315
X42362Y3315
X43298Y5337
X43742Y6321
X44220Y7274
X42874Y9523
X42362Y11523
X43298Y13545
X43742Y14529
X44220Y15482
X42874Y17731
X42362Y19731
X43298Y21753
X43742Y22737
X44220Y23690
X42874Y25939
X42362Y27939
X43298Y29961
X43742Y30945
X44220Y31898
T02
X48330Y2565
Y3352
Y4140
Y4927
Y10773
Y11560
Y12348
Y13135
X38738
Y12348
Y11560
Y10773
Y4927
Y4140
Y3352
Y2565
X29146
Y3352
Y4140
Y4927
Y10773
Y11560
Y12348
Y13135
X19554
Y12348
Y11560
Y10773
Y4927
Y4140
Y3352
Y2565
Y18981
Y19768
Y20556
Y21343
Y27189
Y27976
Y28763
Y29551
X29146
Y28763
Y27976
Y27189
Y21343
Y20556
Y19768
Y18981
X38738
Y19768
Y20556
Y21343
Y27189
Y27976
Y28763
Y29551
X48330
Y28763
Y27976
Y27189
Y21343
Y20556
Y19768
Y18981
T03
X5915Y1260
X6575Y965
X7293Y1299
X7575Y1919
X5600Y1969
X49104Y1850
X49419Y1142
X50079Y846
X50797Y1181
X51079Y1800
X50829Y2500
X50079Y2835
X49350Y2520
X48480Y6865
Y7849
Y15073
Y16057
X38888
Y15073
Y7849
Y6865
X29296
Y7849
Y15073
Y16057
X19704
Y15073
Y7849
Y6865
X7325Y2618
X6575Y2953
X5846Y2638
X19704Y23281
Y24265
Y31489
Y32473
X29296
Y31489
Y24265
Y23281
X38888
Y24265
Y31489
Y32473
X48480
Y31489
Y24265
Y23281
X49144Y35000
X49803Y34705
X50522Y35039
X50803Y35659
X50553Y36359
X49803Y36693
X49075Y36378
X48829Y35709
X7181Y35698
X6900Y35079
X6181Y34744
X5522Y35039
X5207Y35748
X5453Y36417
X6181Y36732
X6931Y36398
T04
X2283Y30236
Y31236
Y32236
Y33236
X4283
Y32236
Y31236
Y30236
Y34236
Y35236
Y36236
X2283
Y35236
Y34236
T05
X48740Y34134
X44961Y36512
X40157Y34488
X35316Y36507
X30565Y34488
X25739Y36531
X20973Y34488
X16142Y36535
T06
X527Y1240
X2307
X12646Y1315
X17646
X22238
X27238
X31830
X36830
X41422
X46422
Y2315
Y3315
Y4315
Y5315
Y6315
Y7315
Y8315
Y9523
Y10523
Y11523
Y12523
Y13523
Y14523
Y15523
Y16523
Y17731
X41422
Y16523
Y15523
Y14523
Y13523
Y12523
Y11523
Y10523
Y9523
Y8315
Y7315
Y6315
Y5315
Y4315
Y3315
Y2315
X36830
Y3315
Y4315
Y5315
Y6315
Y7315
Y8315
Y9523
Y10523
Y11523
Y12523
Y13523
Y14523
Y15523
Y16523
Y17731
X31830
Y16523
Y15523
Y14523
Y13523
Y12523
Y11523
Y10523
Y9523
Y8315
Y7315
Y6315
Y5315
Y4315
Y3315
Y2315
X27238
Y3315
Y4315
Y5315
Y6315
Y7315
Y8315
Y9523
Y10523
Y11523
Y12523
Y13523
Y14523
Y15523
Y16523
Y17731
X22238
Y16523
Y15523
Y14523
Y13523
Y12523
Y11523
Y10523
Y9523
Y8315
Y7315
Y6315
Y5315
Y4315
Y3315
Y2315
X17646
Y3315
Y4315
Y5315
Y6315
Y7315
Y8315
Y9523
Y10523
Y11523
Y12523
Y13523
Y14523
Y15523
Y16523
Y17731
X12646
Y16523
Y15523
Y14523
Y13523
Y12523
Y11523
Y10523
Y9523
Y8315
Y7315
Y6315
Y5315
Y4315
Y3315
Y2315
X2307Y3800
Y4744
X527
Y3800
Y7304
X2307
Y9959
X527
Y12519
Y13644
X2307
Y12519
Y16204
X527
X12646Y18731
Y19731
Y20731
Y21731
Y22731
Y23731
Y24731
Y25939
Y26939
Y27939
Y28939
Y29939
Y30939
Y31939
Y32939
X17646
Y31939
Y30939
Y29939
Y28939
Y27939
Y26939
Y25939
Y24731
Y23731
Y22731
Y21731
Y20731
Y19731
Y18731
X22238
Y19731
Y20731
Y21731
Y22731
Y23731
Y24731
Y25939
Y26939
Y27939
Y28939
Y29939
Y30939
Y31939
Y32939
X27238
Y31939
Y30939
Y29939
Y28939
Y27939
Y26939
Y25939
Y24731
Y23731
Y22731
Y21731
Y20731
Y19731
Y18731
X31830
Y19731
Y20731
Y21731
Y22731
Y23731
Y24731
Y25939
Y26939
Y27939
Y28939
Y29939
Y30939
Y31939
Y32939
X36830
Y31939
Y30939
Y29939
Y28939
Y27939
Y26939
Y25939
Y24731
Y23731
Y22731
Y21731
Y20731
Y19731
Y18731
X41422
Y19731
Y20731
Y21731
Y22731
Y23731
Y24731
Y25939
Y26939
Y27939
Y28939
Y29939
Y30939
Y31939
Y32939
X46422
Y31939
Y30939
Y29939
Y28939
Y27939
Y26939
Y25939
Y24731
Y23731
Y22731
Y21731
Y20731
Y19731
Y18731
T07
X5630Y27284
Y28268
Y29252
X11339
Y27284
T08
X3350Y1284
X9350
Y2284
Y3284
Y4284
Y5284
Y6284
Y7284
Y8284
Y9284
Y10284
Y11284
Y12284
Y13284
Y14284
Y15284
Y16284
Y17284
X3350
Y16284
Y15284
Y14284
Y13284
Y12284
Y11284
Y10284
Y9284
Y8284
Y7284
Y6284
Y5284
Y4284
Y3284
Y2284
X4350
X8150Y3784
Y4784
Y5784
Y6784
Y7784
X8350Y19284
X7350
X6350
X5350
X4350
X3350
Y18284
Y20284
Y21284
Y22284
Y23284
Y24284
X9350
Y23284
Y22284
Y21284
Y20284
Y19284
Y18284
T09
X7889Y34173
X9360Y35804
T10
X6575Y1969
X50079Y1850
X9370Y32922
X49803Y35709
X6181Y35748
T11
X8583Y26024
Y30512
M30
