G04*
G04 #@! TF.GenerationSoftware,Altium Limited,Altium Designer,21.3.1 (25)*
G04*
G04 Layer_Physical_Order=3*
G04 Layer_Color=16440176*
%FSLAX25Y25*%
%MOIN*%
G70*
G04*
G04 #@! TF.SameCoordinates,7C546B25-A564-4243-A2DC-5418B6E61E03*
G04*
G04*
G04 #@! TF.FilePolarity,Positive*
G04*
G01*
G75*
%ADD15C,0.01000*%
%ADD31C,0.00984*%
%ADD35C,0.06496*%
%ADD38C,0.06555*%
%ADD41C,0.06000*%
D15*
X120682Y142836D02*
X121748Y142906D01*
X122795Y143114D01*
X123807Y143458D01*
X124765Y143930D01*
X125654Y144524D01*
X126457Y145228D01*
X93504Y92836D02*
X94271Y92163D01*
X95120Y91596D01*
X96035Y91145D01*
X97001Y90817D01*
X98002Y90618D01*
X99020Y90551D01*
X93504Y102836D02*
X94208Y102198D01*
X94971Y101632D01*
X95786Y101143D01*
X96645Y100737D01*
X97540Y100417D01*
X98462Y100186D01*
X99402Y100047D01*
X100351Y100000D01*
X95065Y81275D02*
X95792Y80616D01*
X96580Y80032D01*
X97422Y79527D01*
X98309Y79108D01*
X99233Y78777D01*
X100185Y78539D01*
X101156Y78395D01*
X102136Y78347D01*
X113807Y221654D02*
X112756Y221571D01*
X111731Y221325D01*
X110756Y220921D01*
X109857Y220370D01*
X109055Y219685D01*
X98064Y212836D02*
X99044Y212884D01*
X100015Y213028D01*
X100967Y213267D01*
X101891Y213597D01*
X102778Y214017D01*
X103620Y214522D01*
X104408Y215106D01*
X105135Y215765D01*
X169874Y264158D02*
X168894Y264109D01*
X167923Y263965D01*
X166972Y263727D01*
X166048Y263396D01*
X165160Y262977D01*
X164319Y262472D01*
X163531Y261888D01*
X162803Y261228D01*
X131074Y232283D02*
X132126Y232366D01*
X133151Y232612D01*
X134126Y233016D01*
X135025Y233567D01*
X135827Y234252D01*
X118695Y232283D02*
X117642Y232214D01*
X116608Y232009D01*
X115609Y231669D01*
X114662Y231203D01*
X113785Y230617D01*
X112992Y229921D01*
X101765Y222836D02*
X102745Y222884D01*
X103716Y223028D01*
X104668Y223267D01*
X105592Y223597D01*
X106479Y224017D01*
X107321Y224521D01*
X108109Y225106D01*
X108836Y225765D01*
X197055Y251559D02*
X196038Y251502D01*
X195033Y251331D01*
X194054Y251049D01*
X193113Y250659D01*
X192221Y250166D01*
X191390Y249576D01*
X190630Y248897D01*
X180406Y242504D02*
X181441Y242561D01*
X182463Y242734D01*
X183460Y243021D01*
X184418Y243418D01*
X185325Y243920D01*
X186171Y244520D01*
X186944Y245211D01*
X177537Y242504D02*
X176582Y242450D01*
X175638Y242290D01*
X174718Y242025D01*
X173834Y241659D01*
X172996Y241197D01*
X172216Y240643D01*
X171502Y240006D01*
X171499Y240003D01*
X127062Y202362D02*
X128018Y202635D01*
X128966Y202934D01*
X129905Y203259D01*
X130835Y203610D01*
X131755Y203986D01*
X132664Y204387D01*
X133562Y204813D01*
X134448Y205263D01*
X135321Y205738D01*
X136181Y206236D01*
X137028Y206757D01*
X137859Y207302D01*
X138675Y207869D01*
X139475Y208459D01*
X140259Y209070D01*
X141026Y209702D01*
X141775Y210355D01*
X142506Y211029D01*
X143218Y211722D01*
X171843Y254709D02*
X170863Y254661D01*
X169892Y254517D01*
X168940Y254278D01*
X168016Y253947D01*
X167129Y253528D01*
X166287Y253023D01*
X165499Y252439D01*
X164772Y251780D01*
X130503Y221654D02*
X131484Y221702D01*
X132454Y221846D01*
X133406Y222084D01*
X134330Y222415D01*
X135217Y222834D01*
X136059Y223339D01*
X136847Y223923D01*
X137575Y224583D01*
X213007Y264158D02*
X213988Y264206D01*
X214958Y264350D01*
X215910Y264588D01*
X216834Y264919D01*
X217721Y265338D01*
X218563Y265843D01*
X219351Y266427D01*
X220078Y267086D01*
X222878Y251565D02*
X221879Y251565D01*
X221771Y251559D02*
X221879Y251565D01*
X222878Y251565D02*
X222985Y251559D01*
X272878Y251565D02*
X271879Y251565D01*
X271771Y251559D02*
X271879Y251565D01*
X292315Y254709D02*
X293295Y254757D01*
X294265Y254901D01*
X295217Y255139D01*
X296141Y255470D01*
X297028Y255889D01*
X297870Y256394D01*
X298658Y256979D01*
X299386Y257638D01*
X315276Y269386D02*
X314296Y269338D01*
X313325Y269194D01*
X312373Y268955D01*
X311449Y268625D01*
X310562Y268205D01*
X309720Y267701D01*
X308932Y267116D01*
X308205Y266457D01*
X317693Y251559D02*
X317800Y251565D01*
X318799Y251565D02*
X318906Y251559D01*
X367693D02*
X367800Y251565D01*
X368799Y251565D02*
X368906Y251559D01*
X272878Y251565D02*
X272985Y251559D01*
X392252D02*
X393232Y251607D01*
X394202Y251751D01*
X395154Y251990D01*
X396078Y252320D01*
X396966Y252740D01*
X397807Y253244D01*
X398595Y253829D01*
X399323Y254488D01*
X318799Y251565D02*
X317800Y251565D01*
X368799Y251565D02*
X367800Y251565D01*
X368799Y169487D02*
X367800Y169487D01*
X318799Y169487D02*
X317800Y169487D01*
X392252Y169480D02*
X393232Y169528D01*
X394202Y169673D01*
X395154Y169911D01*
X396078Y170241D01*
X396966Y170661D01*
X397807Y171166D01*
X398595Y171750D01*
X399323Y172409D01*
X272878Y169487D02*
X272985Y169480D01*
X368799Y169487D02*
X368906Y169480D01*
X367693D02*
X367800Y169487D01*
X318799Y169487D02*
X318906Y169480D01*
X317693D02*
X317800Y169487D01*
X315276Y187307D02*
X314296Y187259D01*
X313325Y187115D01*
X312373Y186876D01*
X311449Y186546D01*
X310562Y186126D01*
X309720Y185622D01*
X308932Y185037D01*
X308205Y184378D01*
X292315Y172630D02*
X293295Y172678D01*
X294265Y172822D01*
X295217Y173061D01*
X296141Y173391D01*
X297028Y173811D01*
X297870Y174315D01*
X298658Y174900D01*
X299386Y175559D01*
X271771Y169480D02*
X271879Y169487D01*
X272878Y169487D02*
X271879Y169487D01*
X222878Y169487D02*
X222985Y169480D01*
X221771D02*
X221879Y169487D01*
X222878Y169487D02*
X221879Y169487D01*
X197055Y169480D02*
X196075Y169432D01*
X195105Y169288D01*
X194153Y169050D01*
X193229Y168719D01*
X192342Y168299D01*
X191500Y167795D01*
X190712Y167210D01*
X189985Y166551D01*
X181074Y160425D02*
X182126Y160508D01*
X183151Y160754D01*
X184126Y161158D01*
X185025Y161709D01*
X185827Y162394D01*
X213007Y182079D02*
X213988Y182127D01*
X214958Y182271D01*
X215910Y182509D01*
X216834Y182840D01*
X217721Y183259D01*
X218563Y183764D01*
X219351Y184349D01*
X220078Y185008D01*
X125700Y72836D02*
X126457Y73150D01*
X120682Y132836D02*
X121748Y132906D01*
X122795Y133115D01*
X123807Y133458D01*
X124765Y133930D01*
X125654Y134524D01*
X126457Y135228D01*
X120682Y122836D02*
X121748Y122906D01*
X122795Y123115D01*
X123807Y123458D01*
X124765Y123930D01*
X125654Y124524D01*
X126457Y125228D01*
X98183Y108157D02*
X98910Y107498D01*
X99698Y106914D01*
X100540Y106409D01*
X101427Y105990D01*
X102351Y105659D01*
X103303Y105420D01*
X104274Y105277D01*
X105254Y105228D01*
X213007Y100000D02*
X213988Y100048D01*
X214958Y100192D01*
X215910Y100431D01*
X216834Y100761D01*
X217721Y101181D01*
X218563Y101685D01*
X219351Y102270D01*
X220078Y102929D01*
X181074Y78347D02*
X182126Y78429D01*
X183151Y78675D01*
X184126Y79079D01*
X185025Y79630D01*
X185827Y80315D01*
X197055Y87402D02*
X196075Y87353D01*
X195105Y87209D01*
X194153Y86971D01*
X193229Y86640D01*
X192342Y86221D01*
X191500Y85716D01*
X190712Y85132D01*
X189985Y84473D01*
X222878Y87408D02*
X221879Y87408D01*
X221771Y87402D02*
X221879Y87408D01*
X222878Y87408D02*
X222985Y87402D01*
X272878Y87408D02*
X271879Y87408D01*
X271771Y87402D02*
X271879Y87408D01*
X292315Y90551D02*
X293295Y90599D01*
X294265Y90743D01*
X295217Y90982D01*
X296141Y91312D01*
X297028Y91732D01*
X297870Y92237D01*
X298658Y92821D01*
X299386Y93480D01*
X315276Y105228D02*
X314296Y105180D01*
X313325Y105036D01*
X312373Y104798D01*
X311449Y104467D01*
X310562Y104048D01*
X309720Y103543D01*
X308932Y102958D01*
X308205Y102299D01*
X317693Y87402D02*
X317800Y87408D01*
X318799Y87408D02*
X318906Y87402D01*
X367693D02*
X367800Y87408D01*
X368799Y87408D02*
X368906Y87402D01*
X272878Y87408D02*
X272985Y87402D01*
X392252D02*
X393232Y87450D01*
X394202Y87594D01*
X395154Y87832D01*
X396078Y88163D01*
X396966Y88582D01*
X397807Y89087D01*
X398595Y89671D01*
X399323Y90330D01*
X318799Y87408D02*
X317800Y87408D01*
X368799Y87408D02*
X367800Y87408D01*
X115575Y11197D02*
X116302Y10538D01*
X117090Y9953D01*
X117932Y9448D01*
X118819Y9029D01*
X119743Y8698D01*
X120695Y8460D01*
X121666Y8316D01*
X122646Y8268D01*
X106864Y19907D02*
X106137Y20566D01*
X105349Y21151D01*
X104507Y21655D01*
X103620Y22075D01*
X102696Y22406D01*
X101744Y22644D01*
X100774Y22788D01*
X99793Y22836D01*
X108282Y29907D02*
X107554Y30566D01*
X106766Y31151D01*
X105925Y31655D01*
X105037Y32075D01*
X104113Y32406D01*
X103162Y32644D01*
X102191Y32788D01*
X101211Y32836D01*
X125112Y23706D02*
X126457Y23150D01*
X108912Y39907D02*
X108185Y40566D01*
X107396Y41151D01*
X106554Y41655D01*
X105667Y42075D01*
X104743Y42406D01*
X103791Y42644D01*
X102821Y42788D01*
X101840Y42836D01*
X122441Y34252D02*
X123220Y33654D01*
X124128Y33278D01*
X125102Y33150D01*
X106786Y49907D02*
X106059Y50566D01*
X105270Y51151D01*
X104429Y51655D01*
X103541Y52075D01*
X102617Y52406D01*
X101665Y52644D01*
X100695Y52788D01*
X99714Y52836D01*
X312866Y17717D02*
X313810Y17799D01*
X314724Y18044D01*
X315583Y18444D01*
X316358Y18988D01*
X317028Y19657D01*
X317571Y20433D01*
X317972Y21291D01*
X318217Y22206D01*
X318299Y23150D01*
X407698Y18110D02*
X407535Y17267D01*
X407480Y16409D01*
X414221Y23150D02*
X413239Y23078D01*
X412278Y22864D01*
X411358Y22512D01*
X410500Y22030D01*
X409721Y21428D01*
X409038Y20719D01*
X408465Y19918D01*
X408016Y19042D01*
X407698Y18110D01*
X401181Y8268D02*
X402167Y8345D01*
X403128Y8576D01*
X404041Y8954D01*
X404884Y9471D01*
X405635Y10113D01*
X406277Y10864D01*
X406794Y11707D01*
X407172Y12620D01*
X407403Y13581D01*
X407480Y14567D01*
X93504Y142836D02*
X120682D01*
X93504Y202836D02*
X96063Y202362D01*
X127062D02*
X127062D01*
X96063D02*
X127062D01*
X93504Y162836D02*
X96954Y161873D01*
X98235Y182313D02*
X100351Y182079D01*
X93504Y172836D02*
X98438Y172652D01*
X93504Y182836D02*
X98235Y182313D01*
X96954Y161873D02*
X102136Y160425D01*
X98438Y172652D02*
X99020Y172630D01*
X93504Y212836D02*
X98064D01*
X93504Y222836D02*
X101765D01*
X93504Y112836D02*
X98183Y108157D01*
X93504Y82836D02*
X95065Y81275D01*
X93504Y52836D02*
X99714D01*
X93504Y22836D02*
X99793D01*
X93504Y32836D02*
X101211D01*
X93504Y42836D02*
X101840D01*
X105135Y215765D02*
X109055Y219685D01*
X113807Y221654D02*
X130503D01*
X93504Y192836D02*
X126457Y187307D01*
X100351Y182079D02*
X213007D01*
X99020Y172630D02*
X292315D01*
X102136Y160425D02*
X181074D01*
X93504Y232836D02*
X126457Y259386D01*
X93504Y242836D02*
X126457Y269386D01*
X169874Y264158D02*
X213007D01*
X135827Y234252D02*
X162803Y261228D01*
X118695Y232283D02*
X131074D01*
X108836Y225765D02*
X112992Y229921D01*
X186944Y245211D02*
X190630Y248897D01*
X177537Y242504D02*
X180406D01*
X180406Y242504D02*
X180406Y242504D01*
X143218Y211722D02*
X171499Y240003D01*
X171843Y254709D02*
X292315D01*
X137575Y224583D02*
X164772Y251780D01*
X220078Y267086D02*
X222378Y269386D01*
X197055Y251559D02*
X221771D01*
X222985D02*
X271771D01*
X222985D02*
X222985D01*
X299386Y257638D02*
X308205Y266457D01*
X315276Y269386D02*
X318299D01*
X272985Y251559D02*
X317693D01*
X272985D02*
X272985D01*
X318906D02*
X367693D01*
X318906D02*
X318906D01*
X399323Y254488D02*
X414221Y269386D01*
X368906Y251559D02*
X368906D01*
X392252D01*
X368906Y169480D02*
X392252D01*
X368906D02*
X368906D01*
X399323Y172409D02*
X414221Y187307D01*
X318906Y169480D02*
X318906D01*
X367693D01*
X272985D02*
X272985D01*
X317693D01*
X315276Y187307D02*
X318299D01*
X299386Y175559D02*
X308205Y184378D01*
X222985Y169480D02*
X222985D01*
X271771D01*
X197055D02*
X221771D01*
X185827Y162394D02*
X189985Y166551D01*
X220078Y185008D02*
X222378Y187307D01*
X93504Y72836D02*
X125700D01*
X93504Y132836D02*
X120682D01*
X93504Y122836D02*
X120682D01*
X105254Y105228D02*
X126457D01*
X100351Y100000D02*
X213007D01*
X220078Y102929D02*
X222378Y105228D01*
X102136Y78347D02*
X181074D01*
X185827Y80315D02*
X189985Y84473D01*
X197055Y87402D02*
X221771D01*
X99020Y90551D02*
X292315D01*
X222985Y87402D02*
X271771D01*
X222985D02*
X222985D01*
X299386Y93480D02*
X308205Y102299D01*
X315276Y105228D02*
X318299D01*
X272985Y87402D02*
X317693D01*
X272985D02*
X272985D01*
X318906D02*
X367693D01*
X318906D02*
X318906D01*
X399323Y90330D02*
X414221Y105228D01*
X368906Y87402D02*
X368906D01*
X392252D01*
X122646Y8268D02*
X401181D01*
X106864Y19907D02*
X115575Y11197D01*
X120472Y17717D02*
X312866D01*
X108282Y29907D02*
X120472Y17717D01*
X108912Y39907D02*
X125112Y23706D01*
X125102Y33150D02*
X126457D01*
X106786Y49907D02*
X122441Y34252D01*
X407480Y14567D02*
Y16409D01*
D31*
X74804Y270670D02*
X74803Y270669D01*
X80032Y272835D02*
X79067Y272772D01*
X78118Y272583D01*
X77203Y272272D01*
X76335Y271845D01*
X75531Y271308D01*
X74804Y270670D01*
X71827Y267693D02*
X71167Y266966D01*
X70583Y266177D01*
X70078Y265336D01*
X69659Y264448D01*
X69328Y263525D01*
X69090Y262573D01*
X68946Y261602D01*
X68898Y260622D01*
X65969Y237228D02*
X66628Y237956D01*
X67212Y238744D01*
X67717Y239586D01*
X68136Y240473D01*
X68467Y241397D01*
X68705Y242349D01*
X68849Y243320D01*
X68898Y244300D01*
X61000Y232260D02*
X60341Y231533D01*
X59756Y230744D01*
X59252Y229903D01*
X58832Y229015D01*
X58501Y228091D01*
X58263Y227139D01*
X58119Y226169D01*
X58071Y225189D01*
X55142Y104474D02*
X55801Y105201D01*
X56386Y105990D01*
X56890Y106831D01*
X57310Y107719D01*
X57640Y108642D01*
X57879Y109594D01*
X58023Y110565D01*
X58071Y111545D01*
X58936Y245944D02*
X59550Y246645D01*
X60069Y247420D01*
X60481Y248256D01*
X60781Y249139D01*
X60963Y250054D01*
X61024Y250984D01*
X50197Y237205D02*
X49512Y236403D01*
X48961Y235504D01*
X48557Y234529D01*
X48311Y233504D01*
X48228Y232452D01*
X45299Y104632D02*
X45958Y105359D01*
X46543Y106147D01*
X47048Y106989D01*
X47467Y107876D01*
X47798Y108800D01*
X48036Y109752D01*
X48180Y110723D01*
X48228Y111703D01*
X63952Y267693D02*
X63293Y266966D01*
X62709Y266177D01*
X62204Y265336D01*
X61785Y264448D01*
X61454Y263525D01*
X61216Y262573D01*
X61072Y261602D01*
X61024Y260622D01*
X92922Y292520D02*
X91942Y292472D01*
X90971Y292328D01*
X90019Y292090D01*
X89095Y291759D01*
X88208Y291339D01*
X87366Y290835D01*
X86578Y290250D01*
X85851Y289591D01*
X53370Y252702D02*
X54029Y253429D01*
X54614Y254218D01*
X55118Y255059D01*
X55538Y255946D01*
X55868Y256870D01*
X56107Y257822D01*
X56251Y258793D01*
X56299Y259773D01*
X207480Y51316D02*
X207377Y52365D01*
X207071Y53374D01*
X206574Y54303D01*
X205906Y55118D01*
X205112Y55814D01*
X204235Y56400D01*
X203289Y56866D01*
X202290Y57205D01*
X201255Y57411D01*
X200203Y57480D01*
X95931Y60409D02*
X96658Y59750D01*
X97446Y59166D01*
X98288Y58661D01*
X99175Y58241D01*
X100099Y57911D01*
X101051Y57673D01*
X102022Y57529D01*
X103002Y57480D01*
X219259Y24441D02*
X220173Y23741D01*
X221236Y23300D01*
X222378Y23150D01*
X36433Y272654D02*
X35774Y271927D01*
X35189Y271139D01*
X34685Y270297D01*
X34265Y269410D01*
X33935Y268486D01*
X33696Y267534D01*
X33552Y266563D01*
X33504Y265583D01*
X80032Y272835D02*
X113385D01*
X74803Y270669D02*
X74804Y270670D01*
X71827Y267693D02*
X74803Y270669D01*
X68898Y244300D02*
Y260622D01*
X61000Y232260D02*
X65969Y237228D01*
X58071Y111545D02*
Y225189D01*
X33504Y82836D02*
X55142Y104474D01*
X50197Y237205D02*
X58936Y245944D01*
X61024Y250984D02*
Y260622D01*
X33504Y92836D02*
X45299Y104632D01*
X48228Y111703D02*
Y232452D01*
X63952Y267693D02*
X85851Y289591D01*
X92922Y292520D02*
X113385D01*
X33504Y232836D02*
X53370Y252702D01*
X56299Y259773D02*
Y272835D01*
X207480Y36220D02*
Y51316D01*
X103002Y57480D02*
X200203D01*
X93504Y62836D02*
X95931Y60409D01*
X207480Y36220D02*
X219259Y24441D01*
X33504Y242836D02*
Y265583D01*
X36433Y272654D02*
X56299Y292520D01*
D35*
X113385D02*
D03*
Y272835D02*
D03*
X56299Y292520D02*
D03*
Y272835D02*
D03*
D38*
X93504Y22836D02*
D03*
X33504Y232836D02*
D03*
Y242836D02*
D03*
X93504D02*
D03*
Y232836D02*
D03*
Y222836D02*
D03*
Y212836D02*
D03*
Y202836D02*
D03*
Y192836D02*
D03*
Y182836D02*
D03*
Y172836D02*
D03*
Y162836D02*
D03*
X33504Y82836D02*
D03*
Y92836D02*
D03*
X93504Y142836D02*
D03*
Y132836D02*
D03*
Y122836D02*
D03*
Y112836D02*
D03*
Y102836D02*
D03*
Y92836D02*
D03*
Y82836D02*
D03*
Y72836D02*
D03*
Y62836D02*
D03*
Y52836D02*
D03*
Y42836D02*
D03*
Y32836D02*
D03*
D41*
X126457Y73150D02*
D03*
Y33150D02*
D03*
Y23150D02*
D03*
X222378D02*
D03*
X414221Y269386D02*
D03*
X318299D02*
D03*
X222378D02*
D03*
X126457D02*
D03*
Y259386D02*
D03*
X414221Y187307D02*
D03*
X318299D02*
D03*
X222378D02*
D03*
X126457D02*
D03*
X414221Y105228D02*
D03*
X318299D02*
D03*
X222378D02*
D03*
X126457Y145228D02*
D03*
Y135228D02*
D03*
Y125228D02*
D03*
Y105228D02*
D03*
X414221Y23150D02*
D03*
X318299D02*
D03*
M02*
